<svg xmlns="http://www.w3.org/2000/svg" xml:space="preserve" viewBox="0 0 451.583 451.583"><path d="M443.438 131.743a12.5 12.5 0 0 0-20.253-3.799l-46.147 45.965c-6.986 6.988-16.279 10.836-26.162 10.836-9.881 0-19.172-3.848-26.16-10.836-6.988-6.988-10.837-16.279-10.838-26.162 0-9.883 3.85-19.172 10.823-26.148l46.106-45.973a12.501 12.501 0 0 0-3.767-20.283c-12.121-5.361-25.594-8.197-38.964-8.197-24.839 0-47.881 9.361-64.881 26.361l-15.196 15.197c-26.348 26.348-34.146 65.178-20.72 99.207l-15.468 15.468-16.109-16.107 6.475-6.474c4.882-4.882 4.882-12.796 0-17.678l-62.931-62.931c4.058-16.895-.817-34.763-13.438-47.377-9.538-9.539-22.22-14.793-35.709-14.793-13.488 0-26.17 5.252-35.71 14.79L14.793 92.408C5.254 101.945 0 114.627 0 128.116c0 13.489 5.254 26.172 14.792 35.712 9.532 9.532 22.209 14.782 35.693 14.783h.002c3.97 0 7.874-.455 11.677-1.356l62.938 62.94a12.5 12.5 0 0 0 17.678 0l6.471-6.472 16.108 16.106-63.019 63.019c-11.143 11.144-17.28 25.959-17.281 41.717-.001 15.761 6.136 30.573 17.279 41.72 11.145 11.143 25.961 17.277 41.719 17.277 15.759 0 30.574-6.137 41.719-17.277l63.029-63.029 62.729 62.748a12.466 12.466 0 0 0 4.968 3.047l42.669 13.898a12.497 12.497 0 0 0 12.711-3.047 12.5 12.5 0 0 0 3.047-12.709l-13.896-42.673a12.518 12.518 0 0 0-3.047-4.968l-62.729-62.749 15.471-15.472a93.063 93.063 0 0 0 33.798 6.379c24.705 0 47.929-9.621 65.396-27.088l15.195-15.195c26.62-26.619 33.983-68.287 18.321-103.684zm-309.497 81.936-59.519-59.521a12.495 12.495 0 0 0-13.796-2.637 25.406 25.406 0 0 1-10.14 2.09c-6.809-.001-13.207-2.65-18.018-7.46-4.816-4.817-7.469-11.222-7.469-18.033 0-6.811 2.652-13.214 7.469-18.03l39.597-39.599c4.817-4.816 11.222-7.469 18.033-7.469s13.214 2.652 18.032 7.472c7.438 7.435 9.547 18.485 5.371 28.152a12.502 12.502 0 0 0 2.637 13.795l59.521 59.521-41.718 41.719zm32.989 2.367 11.096-11.096 16.107 16.107-11.096 11.096-16.107-16.107zm171.258 149.065 5.358 16.457-16.455-5.359-60.609-60.631 11.097-11.097 60.609 60.63zm69.25-147.36-15.195 15.195c-12.746 12.746-29.692 19.767-47.719 19.767-10.802-.002-21.476-2.541-31.001-7.482-5.297-2.744-11.397-1.078-15.519 3.293L168.099 378.607c-6.422 6.422-14.96 9.957-24.041 9.957s-17.619-3.535-24.041-9.957c-6.42-6.424-9.957-14.96-9.957-24.04 0-9.082 3.537-17.618 9.959-24.041L250.079 200.6c4.485-4.262 6.041-10.225 3.294-15.521-13.596-26.223-8.598-57.795 12.305-78.697l15.197-15.197c12.277-12.277 29.041-19.039 47.201-19.039 3.373 0 6.752.242 10.096.719l-31.135 31.045c-11.71 11.709-18.158 27.279-18.158 43.838.002 16.561 6.45 32.131 18.16 43.84 11.71 11.711 27.279 18.16 43.84 18.158 16.562-.002 32.13-6.449 43.82-18.141l31.216-31.092c2.964 20.929-3.602 42.363-18.477 57.238z"/><path d="M146.954 332.171a19.368 19.368 0 0 0-13.789 5.711c-3.682 3.684-5.711 8.58-5.711 13.789s2.028 10.104 5.711 13.789a19.377 19.377 0 0 0 13.789 5.711 19.38 19.38 0 0 0 13.789-5.713 19.367 19.367 0 0 0 5.711-13.787 19.37 19.37 0 0 0-5.711-13.789 19.372 19.372 0 0 0-13.789-5.711z"/></svg>

